<?xml version="1.0" encoding="iso-8859-1"?>
<!-- Generator: Adobe Illustrator 19.0.0, SVG Export Plug-In . SVG Version: 6.00 Build 0)  -->
<svg version="1.1" id="Layer_1" xmlns="http://www.w3.org/2000/svg" xmlns:xlink="http://www.w3.org/1999/xlink" x="0px" y="0px"
	 viewBox="0 0 512 512" style="enable-background:new 0 0 512 512;" xml:space="preserve">
<path style="fill:#4596E6;" d="M211.35,262.209L162.455,362H91c-16.538,0-30,13.462-30,30s13.462,30,30,30h90
	c11.44,0,21.724-6.357,26.836-16.582l50.253-100.516L211.35,262.209z"/>
<g>
	<path style="fill:#4DA6FF;" d="M451,210c0,16.5-13.5,30-30,30h-60c-8.101,0-15.601-3.001-21.301-8.701L309.101,200.7L279.7,259.799
		L331,294l16.5,13.1c8.401,5.4,13.5,15,13.5,24.901v90c0,16.5-13.5,30-30,30s-30-13.5-30-30V348.2l-76.5-53.301
		C211.901,286.5,207.4,270,214.3,256.5l59.401-119.101c9.598-19.499,34.199-23.099,48.6-8.699l8.699,8.699L373.299,180H421
		C437.5,180,451,193.5,451,210z"/>
	<path style="fill:#4DA6FF;" d="M346,0c-24.749,0-45,20.249-45,45c0,24.749,20.251,45,45,45s45-20.251,45-45
		C391,20.249,370.749,0,346,0z"/>
</g>
<path style="fill:#6F7D96;" d="M451,437c0,8.399-6.599,15-15,15H226c-8.401,0-15-6.601-15-15c0-8.401,6.599-15,15-15h210
	C444.401,422,451,428.599,451,437z"/>
<path style="fill:#66728B;" d="M436,452c-8.291,0-15-6.709-15-15V210c0-8.291,6.709-15,15-15s15,6.709,15,15v227
	C451,445.291,444.291,452,436,452z"/>
<path style="fill:#6F7D96;" d="M380.395,258.105c-5.859-5.859-5.859-15.352,0-21.211l75-75c5.859-5.859,15.352-5.859,21.211,0
	s5.859,15.352,0,21.211l-75,75C395.746,263.965,386.254,263.965,380.395,258.105z"/>
<g>
	<path style="fill:#E0E4EC;" d="M196,120H46c-8.291,0-15-6.709-15-15s6.709-15,15-15h150c8.291,0,15,6.709,15,15
		S204.291,120,196,120z"/>
	<path style="fill:#E0E4EC;" d="M76,240H46c-8.291,0-15-6.709-15-15s6.709-15,15-15h30c8.291,0,15,6.709,15,15S84.291,240,76,240z"
		/>
	<path style="fill:#E0E4EC;" d="M136,180H46c-8.291,0-15-6.709-15-15s6.709-15,15-15h90c8.291,0,15,6.709,15,15S144.291,180,136,180
		z"/>
</g>
<path style="fill:#66728B;" d="M451,437c0,8.399-6.599,15-15,15H331v-30h105C444.401,422,451,428.599,451,437z"/>
<path style="fill:#495A79;" d="M226,422c-24.901,0-45,20.099-45,45c0,24.899,20.099,45,45,45s45-20.101,45-45
	C271,442.099,250.901,422,226,422z"/>
<path style="fill:#42516D;" d="M271,467c0,24.899-20.099,45-45,45v-90C250.901,422,271,442.099,271,467z"/>
<path style="fill:#E0E4EC;" d="M226,452c-8.401,0-15,6.599-15,15c0,8.399,6.599,15,15,15s15-6.601,15-15
	C241,458.599,234.401,452,226,452z"/>
<path style="fill:#D1D7E3;" d="M241,467c0,8.399-6.599,15-15,15v-30C234.401,452,241,458.599,241,467z"/>
<path style="fill:#495A79;" d="M436,422c-24.901,0-45,20.099-45,45c0,24.899,20.099,45,45,45s45-20.101,45-45
	C481,442.099,460.901,422,436,422z"/>
<path style="fill:#42516D;" d="M481,467c0,24.899-20.099,45-45,45v-90C460.901,422,481,442.099,481,467z"/>
<path style="fill:#E0E4EC;" d="M436,452c-8.401,0-15,6.599-15,15c0,8.399,6.599,15,15,15s15-6.601,15-15
	C451,458.599,444.401,452,436,452z"/>
<path style="fill:#D1D7E3;" d="M451,467c0,8.399-6.599,15-15,15v-30C444.401,452,451,458.599,451,467z"/>
<g>
</g>
<g>
</g>
<g>
</g>
<g>
</g>
<g>
</g>
<g>
</g>
<g>
</g>
<g>
</g>
<g>
</g>
<g>
</g>
<g>
</g>
<g>
</g>
<g>
</g>
<g>
</g>
<g>
</g>
</svg>
